<svg width="24" height="24" viewBox="0 0 24 24" fill="none" xmlns="http://www.w3.org/2000/svg">
<rect width="24" height="24" rx="12" fill="#F2F9FF"/>
<path d="M8.12002 14.4266C8.50547 14.4266 8.87513 14.5797 9.14768 14.8523C9.42024 15.1249 9.57335 15.4945 9.57335 15.88C9.57335 16.6666 8.92002 17.3333 8.12002 17.3333C7.33335 17.3333 6.66669 16.6666 6.66669 15.88C6.66669 15.4945 6.81981 15.1249 7.09236 14.8523C7.36491 14.5797 7.73457 14.4266 8.12002 14.4266ZM6.66669 6.95996C9.41787 6.95996 12.0564 8.05286 14.0017 9.99824C15.9471 11.9436 17.04 14.5821 17.04 17.3333H15.1534C15.1534 15.0825 14.2592 12.9239 12.6677 11.3323C11.0761 9.74076 8.91749 8.84663 6.66669 8.84663V6.95996ZM6.66669 10.7333C8.41712 10.7333 10.0959 11.4286 11.3336 12.6664C12.5713 13.9041 13.2667 15.5829 13.2667 17.3333H11.38C11.38 16.0832 10.8834 14.8844 9.99952 14.0005C9.1156 13.1165 7.91674 12.62 6.66669 12.62V10.7333Z" fill="#3C4F61"/>
</svg>
