<svg width="24" height="24" viewBox="0 0 24 24" fill="none" xmlns="http://www.w3.org/2000/svg">
<rect width="24" height="24" rx="12" fill="#F2F9FF"/>
<g clip-path="url(#clip0_645_888)">
<path fill-rule="evenodd" clip-rule="evenodd" d="M17.1844 6.95331C17.3492 6.88397 17.5295 6.86006 17.7066 6.88405C17.8837 6.90805 18.0512 6.97909 18.1915 7.08977C18.3319 7.20044 18.44 7.34672 18.5047 7.51337C18.5693 7.68001 18.5881 7.86094 18.5591 8.03731L17.0471 17.2086C16.9004 18.0933 15.9297 18.6006 15.1184 18.16C14.4397 17.7913 13.4317 17.2233 12.5251 16.6306C12.0717 16.334 10.6831 15.384 10.8537 14.708C11.0004 14.13 13.3337 11.958 14.6671 10.6666C15.1904 10.1593 14.9517 9.86664 14.3337 10.3333C12.7991 11.492 10.3351 13.254 9.52042 13.75C8.80175 14.1873 8.42708 14.262 7.97908 14.1873C7.16175 14.0513 6.40375 13.8406 5.78508 13.584C4.94908 13.2373 4.98975 12.088 5.78442 11.7533L17.1844 6.95331Z" fill="#3C4F61"/>
</g>
<defs>
<clipPath id="clip0_645_888">
<rect width="16" height="16" fill="white" transform="translate(4 4)"/>
</clipPath>
</defs>
</svg>
