<svg width="24" height="24" viewBox="0 0 24 24" fill="none" xmlns="http://www.w3.org/2000/svg">
<rect width="24" height="24" rx="12" fill="#F2F9FF"/>
<path d="M18.386 8.57005C18.4793 8.26005 18.386 8.03271 17.9446 8.03271H16.4826C16.1106 8.03271 15.9406 8.22938 15.8473 8.44538C15.8473 8.44538 15.104 10.258 14.0506 11.4334C13.7106 11.7754 13.5553 11.8834 13.37 11.8834C13.2773 11.8834 13.1426 11.7754 13.1426 11.4654V8.57005C13.1426 8.19805 13.0353 8.03271 12.7253 8.03271H10.428C10.196 8.03271 10.056 8.20471 10.056 8.36871C10.056 8.72071 10.5826 8.80205 10.6366 9.79405V11.946C10.6366 12.4174 10.552 12.5034 10.3653 12.5034C9.86998 12.5034 8.66465 10.684 7.94931 8.60138C7.80998 8.19671 7.66931 8.03338 7.29598 8.03338H5.83465C5.41665 8.03338 5.33331 8.23005 5.33331 8.44605C5.33331 8.83405 5.82865 10.754 7.64065 13.2934C8.84865 15.0274 10.5493 15.9674 12.0986 15.9674C13.0273 15.9674 13.142 15.7587 13.142 15.3987V14.088C13.142 13.6707 13.2306 13.5867 13.5246 13.5867C13.7406 13.5867 14.1126 13.696 14.98 14.5314C15.9706 15.522 16.1346 15.9667 16.6913 15.9667H18.1526C18.57 15.9667 18.7786 15.758 18.6586 15.346C18.5273 14.936 18.054 14.3394 17.426 13.6334C17.0846 13.2307 16.5746 12.7974 16.4193 12.5807C16.2026 12.3014 16.2653 12.178 16.4193 11.93C16.42 11.9307 18.2006 9.42272 18.386 8.57005Z" fill="#3C4F61"/>
</svg>
