<svg width="44" height="44" viewBox="0 0 44 44" fill="none" xmlns="http://www.w3.org/2000/svg">
<path d="M37 34C36.6022 34 36.2206 33.842 35.9393 33.5607C35.658 33.2794 35.5 32.8978 35.5 32.5C35.5 32.1022 35.658 31.7206 35.9393 31.4393C36.2206 31.158 36.6022 31 37 31C37.9283 31 38.8185 30.6313 39.4749 29.9749C40.1312 29.3185 40.5 28.4283 40.5 27.5V11.5C40.5 10.5717 40.1312 9.6815 39.4749 9.02513C38.8185 8.36875 37.9283 8 37 8H7C6.07174 8 5.1815 8.36875 4.52513 9.02513C3.86875 9.6815 3.5 10.5717 3.5 11.5V14.25C3.5 14.6478 3.34196 15.0294 3.06066 15.3107C2.77936 15.592 2.39782 15.75 2 15.75C1.60218 15.75 1.22064 15.592 0.93934 15.3107C0.658035 15.0294 0.5 14.6478 0.5 14.25L0.5 11.5C0.502117 9.77674 1.18762 8.12467 2.40614 6.90614C3.62467 5.68762 5.27674 5.00212 7 5H37C38.7233 5.00212 40.3753 5.68762 41.5939 6.90614C42.8124 8.12467 43.4979 9.77674 43.5 11.5V27.5C43.4979 29.2233 42.8124 30.8753 41.5939 32.0939C40.3753 33.3124 38.7233 33.9979 37 34Z" fill="#B0E6A1"/>
<path d="M2 21.46C1.80291 21.46 1.60777 21.4211 1.42572 21.3456C1.24366 21.2701 1.07827 21.1595 0.939 21.02C0.870932 20.9477 0.80779 20.8708 0.75 20.79C0.697096 20.7067 0.649984 20.6198 0.609 20.53C0.577212 20.4383 0.550834 20.3448 0.53 20.25C0.510132 20.1546 0.50008 20.0575 0.5 19.96C0.500073 19.8593 0.510122 19.7588 0.53 19.66C0.55 19.57 0.58 19.47 0.609 19.38C0.650007 19.2934 0.697126 19.2099 0.75 19.13C0.914548 18.8829 1.14872 18.6902 1.42286 18.5763C1.697 18.4624 1.99879 18.4323 2.29 18.49C2.38461 18.5107 2.4778 18.5374 2.569 18.57C2.6592 18.6105 2.74642 18.6572 2.83 18.71C2.91105 18.7678 2.98791 18.8313 3.06 18.9C3.13077 18.9702 3.19441 19.0473 3.25 19.13C3.30255 19.2099 3.34933 19.2935 3.39 19.38C3.42 19.47 3.45 19.57 3.47 19.66C3.48988 19.7588 3.49993 19.8593 3.5 19.96C3.49992 20.0575 3.48987 20.1546 3.47 20.25C3.44931 20.345 3.42259 20.4385 3.39 20.53C3.34935 20.6198 3.30258 20.7067 3.25 20.79C3.19187 20.8708 3.12839 20.9477 3.06 21.02C2.77897 21.3014 2.39769 21.4597 2 21.46Z" fill="#B0E6A1"/>
<path d="M7 34C5.27674 33.9979 3.62467 33.3124 2.40614 32.0939C1.18762 30.8753 0.502117 29.2233 0.5 27.5C0.5 27.1022 0.658035 26.7206 0.93934 26.4393C1.22064 26.158 1.60218 26 2 26C2.39782 26 2.77936 26.158 3.06066 26.4393C3.34196 26.7206 3.5 27.1022 3.5 27.5C3.5 28.4283 3.86875 29.3185 4.52513 29.9749C5.1815 30.6313 6.07174 31 7 31C7.39782 31 7.77936 31.158 8.06066 31.4393C8.34196 31.7206 8.5 32.1022 8.5 32.5C8.5 32.8978 8.34196 33.2794 8.06066 33.5607C7.77936 33.842 7.39782 34 7 34Z" fill="#B0E6A1"/>
<path d="M12 39C10.7144 39 9.45772 38.6188 8.3888 37.9046C7.31988 37.1903 6.48676 36.1752 5.99479 34.9874C5.50282 33.7997 5.37409 32.4928 5.6249 31.2319C5.8757 29.971 6.49477 28.8129 7.40381 27.9038C8.31285 26.9948 9.47104 26.3757 10.7319 26.1249C11.9928 25.8741 13.2997 26.0028 14.4874 26.4948C15.6752 26.9868 16.6903 27.8199 17.4046 28.8888C18.1188 29.9577 18.5 31.2144 18.5 32.5C18.4979 34.2233 17.8124 35.8753 16.5939 37.0939C15.3753 38.3124 13.7233 38.9979 12 39ZM12 29C11.3078 29 10.6311 29.2053 10.0555 29.5899C9.47993 29.9744 9.03133 30.5211 8.76642 31.1606C8.50152 31.8002 8.43221 32.5039 8.56725 33.1828C8.7023 33.8618 9.03565 34.4854 9.52513 34.9749C10.0146 35.4644 10.6383 35.7977 11.3172 35.9328C11.9961 36.0678 12.6999 35.9985 13.3394 35.7336C13.9789 35.4687 14.5256 35.0201 14.9101 34.4445C15.2947 33.8689 15.5 33.1922 15.5 32.5C15.5 31.5717 15.1313 30.6815 14.4749 30.0251C13.8185 29.3688 12.9283 29 12 29Z" fill="#B0E6A1"/>
<path d="M32 39C30.7144 39 29.4577 38.6188 28.3888 37.9046C27.3199 37.1903 26.4868 36.1752 25.9948 34.9874C25.5028 33.7997 25.3741 32.4928 25.6249 31.2319C25.8757 29.971 26.4948 28.8129 27.4038 27.9038C28.3129 26.9948 29.471 26.3757 30.7319 26.1249C31.9928 25.8741 33.2997 26.0028 34.4874 26.4948C35.6752 26.9868 36.6903 27.8199 37.4046 28.8888C38.1188 29.9577 38.5 31.2144 38.5 32.5C38.4979 34.2233 37.8124 35.8753 36.5939 37.0939C35.3753 38.3124 33.7233 38.9979 32 39ZM32 29C31.3078 29 30.6311 29.2053 30.0555 29.5899C29.4799 29.9744 29.0313 30.5211 28.7664 31.1606C28.5015 31.8002 28.4322 32.5039 28.5673 33.1828C28.7023 33.8618 29.0356 34.4854 29.5251 34.9749C30.0146 35.4644 30.6383 35.7977 31.3172 35.9328C31.9961 36.0678 32.6999 35.9985 33.3394 35.7336C33.9789 35.4687 34.5256 35.0201 34.9101 34.4445C35.2947 33.8689 35.5 33.1922 35.5 32.5C35.5 31.5717 35.1313 30.6815 34.4749 30.0251C33.8185 29.3688 32.9283 29 32 29Z" fill="#B0E6A1"/>
<path d="M27 34H17C16.6022 34 16.2206 33.842 15.9393 33.5607C15.658 33.2794 15.5 32.8978 15.5 32.5C15.5 32.1022 15.658 31.7206 15.9393 31.4393C16.2206 31.158 16.6022 31 17 31H27C27.3978 31 27.7794 31.158 28.0607 31.4393C28.342 31.7206 28.5 32.1022 28.5 32.5C28.5 32.8978 28.342 33.2794 28.0607 33.5607C27.7794 33.842 27.3978 34 27 34Z" fill="#B0E6A1"/>
<path d="M42 23H36C34.5413 23 33.1424 22.4205 32.1109 21.3891C31.0795 20.3576 30.5 18.9587 30.5 17.5C30.5 16.0413 31.0795 14.6424 32.1109 13.6109C33.1424 12.5795 34.5413 12 36 12H42C42.3978 12 42.7794 12.158 43.0607 12.4393C43.342 12.7206 43.5 13.1022 43.5 13.5V21.5C43.5 21.8978 43.342 22.2794 43.0607 22.5607C42.7794 22.842 42.3978 23 42 23ZM36 15C35.337 15 34.7011 15.2634 34.2322 15.7322C33.7634 16.2011 33.5 16.837 33.5 17.5C33.5 18.163 33.7634 18.7989 34.2322 19.2678C34.7011 19.7366 35.337 20 36 20H40.5V15H36Z" fill="#B0E6A1"/>
<path d="M21 23H15C13.5413 23 12.1424 22.4205 11.1109 21.3891C10.0795 20.3576 9.5 18.9587 9.5 17.5C9.5 16.0413 10.0795 14.6424 11.1109 13.6109C12.1424 12.5795 13.5413 12 15 12H21C22.4587 12 23.8576 12.5795 24.8891 13.6109C25.9205 14.6424 26.5 16.0413 26.5 17.5C26.5 18.9587 25.9205 20.3576 24.8891 21.3891C23.8576 22.4205 22.4587 23 21 23ZM15 15C14.337 15 13.7011 15.2634 13.2322 15.7322C12.7634 16.2011 12.5 16.837 12.5 17.5C12.5 18.163 12.7634 18.7989 13.2322 19.2678C13.7011 19.7366 14.337 20 15 20H21C21.663 20 22.2989 19.7366 22.7678 19.2678C23.2366 18.7989 23.5 18.163 23.5 17.5C23.5 16.837 23.2366 16.2011 22.7678 15.7322C22.2989 15.2634 21.663 15 21 15H15Z" fill="#B0E6A1"/>
</svg>
