<svg width="32" height="32" viewBox="0 0 32 32" fill="none" xmlns="http://www.w3.org/2000/svg">
<path fill-rule="evenodd" clip-rule="evenodd" d="M27.6667 6.66675C27.6667 6.93196 27.5613 7.18632 27.3738 7.37386C27.1863 7.56139 26.9319 7.66675 26.6667 7.66675H5.33337C5.06816 7.66675 4.8138 7.56139 4.62627 7.37386C4.43873 7.18632 4.33337 6.93196 4.33337 6.66675C4.33337 6.40153 4.43873 6.14718 4.62627 5.95964C4.8138 5.7721 5.06816 5.66675 5.33337 5.66675H26.6667C26.9319 5.66675 27.1863 5.7721 27.3738 5.95964C27.5613 6.14718 27.6667 6.40153 27.6667 6.66675ZM27.6667 16.0001C27.6667 16.2653 27.5613 16.5197 27.3738 16.7072C27.1863 16.8947 26.9319 17.0001 26.6667 17.0001H5.33337C5.06816 17.0001 4.8138 16.8947 4.62627 16.7072C4.43873 16.5197 4.33337 16.2653 4.33337 16.0001C4.33337 15.7349 4.43873 15.4805 4.62627 15.293C4.8138 15.1054 5.06816 15.0001 5.33337 15.0001H26.6667C26.9319 15.0001 27.1863 15.1054 27.3738 15.293C27.5613 15.4805 27.6667 15.7349 27.6667 16.0001ZM27.6667 25.3334C27.6667 25.5986 27.5613 25.853 27.3738 26.0405C27.1863 26.2281 26.9319 26.3334 26.6667 26.3334H5.33337C5.06816 26.3334 4.8138 26.2281 4.62627 26.0405C4.43873 25.853 4.33337 25.5986 4.33337 25.3334C4.33337 25.0682 4.43873 24.8138 4.62627 24.6263C4.8138 24.4388 5.06816 24.3334 5.33337 24.3334H26.6667C26.9319 24.3334 27.1863 24.4388 27.3738 24.6263C27.5613 24.8138 27.6667 25.0682 27.6667 25.3334Z" fill="#059784"/>
</svg>
