<svg width="32" height="24" viewBox="0 0 32 24" fill="none" xmlns="http://www.w3.org/2000/svg">
<g clip-path="url(#clip0_3028_3248)">
<path d="M0 3.74677V7.38462H5.00267L0 3.74677ZM4.14578 24H11.5556V18.612L4.14578 24ZM20.4444 18.6129V24H27.8533L20.4444 18.6129ZM0 16.6154V20.2532L5.00444 16.6154H0ZM27.8551 0H20.4444V5.388L27.8551 0ZM32 20.2542V16.6154H26.9947L32 20.2542ZM32 7.38462V3.74677L26.9964 7.38462H32ZM11.5556 0H4.14578L11.5556 5.388V0Z" fill="#00247D"/>
<path d="M22.3469 16.6154L30.9798 22.8933C31.4014 22.4422 31.7044 21.8863 31.8598 21.2788L25.4464 16.6154H22.3469ZM11.5558 16.6154H9.65266L1.02066 22.8924C1.48377 23.3816 2.07755 23.7314 2.74333 23.8939L11.5558 17.4859V16.6154ZM20.4447 7.38466H22.3478L30.9798 1.10774C30.5087 0.611378 29.9116 0.264072 29.258 0.106201L20.4447 6.5142V7.38466ZM9.65266 7.38466L1.02066 1.10774C0.599284 1.5591 0.29605 2.11486 0.139771 2.7222L6.5531 7.38466H9.65266Z" fill="#CF1B2B"/>
<path d="M32 14.7692H18.6667V24H20.4444V18.6129L27.8533 24H28.4444C28.9167 24.0001 29.3842 23.9022 29.8195 23.7122C30.2548 23.5221 30.6492 23.2437 30.9796 22.8932L22.3467 16.6154H25.4462L31.8596 21.2788C31.9422 20.9677 32 20.6455 32 20.3077V20.2542L26.9947 16.6154H32V14.7692ZM0 14.7692V16.6154H5.00444L0 20.2532V20.3077C0 21.3148 0.390222 22.2258 1.02044 22.8923L9.65244 16.6154H11.5556V17.4858L2.74311 23.8929C3.00444 23.9575 3.27467 24 3.55556 24H4.14578L11.5556 18.612V24H13.3333V14.7692H0ZM32 3.69231C32.0005 2.72491 31.6339 1.79626 30.9796 1.10769L22.3476 7.38462H20.4444V6.51415L29.2578 0.106154C28.9915 0.038333 28.7186 0.00271205 28.4444 3.49272e-07H27.8551L20.4444 5.388V3.49272e-07H18.6667V9.23077H32V7.38462H26.9964L32 3.74677V3.69231ZM11.5556 3.49272e-07V5.388L4.14578 3.49272e-07H3.55556C3.08322 -0.00021339 2.61561 0.097674 2.18025 0.287903C1.74488 0.478133 1.35055 0.756862 1.02044 1.10769L9.65244 7.38462H6.55289L0.139556 2.72215C0.0513602 3.03758 0.00442081 3.36389 0 3.69231L0 3.74677L5.00267 7.38462H0V9.23077H13.3333V3.49272e-07H11.5556Z" fill="#EEEEEE"/>
<path d="M18.6667 9.23077V0H13.3333V9.23077H0V14.7692H13.3333V24H18.6667V14.7692H32V9.23077H18.6667Z" fill="#CF1B2B"/>
</g>
<defs>
<clipPath id="clip0_3028_3248">
<rect width="32" height="24" rx="4" fill="white"/>
</clipPath>
</defs>
</svg>
