<svg width="32" height="32" viewBox="0 0 32 32" fill="none" xmlns="http://www.w3.org/2000/svg">
<path fill-rule="evenodd" clip-rule="evenodd" d="M15.3333 3.66675C13.8012 3.66675 12.2841 3.96852 10.8687 4.55482C9.45319 5.14113 8.16706 6.00049 7.08371 7.08384C6.00036 8.16719 5.141 9.45331 4.5547 10.8688C3.96839 12.2842 3.66663 13.8013 3.66663 15.3334C3.66663 16.8655 3.96839 18.3826 4.5547 19.7981C5.141 21.2135 6.00036 22.4996 7.08371 23.583C8.16706 24.6663 9.45319 25.5257 10.8687 26.112C12.2841 26.6983 13.8012 27.0001 15.3333 27.0001C18.4275 27.0001 21.3949 25.7709 23.5829 23.583C25.7708 21.3951 27 18.4276 27 15.3334C27 12.2392 25.7708 9.27176 23.5829 7.08384C21.3949 4.89591 18.4275 3.66675 15.3333 3.66675ZM1.66663 15.3334C1.66663 7.78675 7.78663 1.66675 15.3333 1.66675C22.88 1.66675 29 7.78675 29 15.3334C29 18.7467 27.748 21.8694 25.6786 24.2641L30.04 28.6267C30.1382 28.7183 30.217 28.8287 30.2717 28.9514C30.3263 29.074 30.3557 29.2064 30.3581 29.3407C30.3605 29.475 30.3358 29.6084 30.2855 29.7329C30.2352 29.8574 30.1603 29.9705 30.0653 30.0655C29.9704 30.1604 29.8573 30.2353 29.7328 30.2856C29.6082 30.3359 29.4749 30.3606 29.3406 30.3582C29.2063 30.3558 29.0739 30.3264 28.9512 30.2718C28.8286 30.2171 28.7182 30.1383 28.6266 30.0401L24.264 25.6787C21.7844 27.8255 18.6131 29.0049 15.3333 29.0001C7.78663 29.0001 1.66663 22.8801 1.66663 15.3334Z" fill="#059784"/>
</svg>
