<svg width="32" height="24" viewBox="0 0 32 24" fill="none" xmlns="http://www.w3.org/2000/svg">
<g clip-path="url(#clip0_3028_2721)">
<path d="M32 20.3077C32 21.2869 31.6254 22.2261 30.9586 22.9185C30.2918 23.611 29.3874 24 28.4444 24H3.55556C2.61256 24 1.70819 23.611 1.0414 22.9185C0.374602 22.2261 0 21.2869 0 20.3077V16.6154H32V20.3077Z" fill="#CE2028"/>
<path d="M0 7.38464H32V16.6154H0V7.38464Z" fill="#22408C"/>
<path d="M28.4444 0H3.55556C2.61256 0 1.70819 0.38901 1.0414 1.08145C0.374602 1.77389 0 2.71305 0 3.69231L0 7.38462H32V3.69231C32 2.71305 31.6254 1.77389 30.9586 1.08145C30.2918 0.38901 29.3874 0 28.4444 0Z" fill="#EEEEEE"/>
</g>
<defs>
<clipPath id="clip0_3028_2721">
<rect width="32" height="24" rx="4" fill="white"/>
</clipPath>
</defs>
</svg>
