<svg width="14" height="14" viewBox="0 0 14 14" fill="none" xmlns="http://www.w3.org/2000/svg">
<path d="M11.4333 12.25L7.75833 8.575C7.46667 8.80833 7.13125 8.99305 6.75208 9.12917C6.37292 9.26528 5.96944 9.33333 5.54167 9.33333C4.48194 9.33333 3.58517 8.96622 2.85133 8.232C2.1175 7.49778 1.75039 6.601 1.75 5.54167C1.75 4.48194 2.11711 3.58517 2.85133 2.85133C3.58556 2.1175 4.48233 1.75039 5.54167 1.75C6.60139 1.75 7.49836 2.11711 8.23258 2.85133C8.96681 3.58556 9.33372 4.48233 9.33333 5.54167C9.33333 5.96944 9.26528 6.37292 9.12917 6.75208C8.99305 7.13125 8.80833 7.46667 8.575 7.75833L12.25 11.4333L11.4333 12.25ZM5.54167 8.16667C6.27083 8.16667 6.89072 7.91156 7.40133 7.40133C7.91194 6.89111 8.16706 6.27122 8.16667 5.54167C8.16667 4.8125 7.91156 4.19281 7.40133 3.68258C6.89111 3.17236 6.27122 2.91706 5.54167 2.91667C4.8125 2.91667 4.19281 3.17197 3.68258 3.68258C3.17236 4.19319 2.91706 4.81289 2.91667 5.54167C2.91667 6.27083 3.17197 6.89072 3.68258 7.40133C4.19319 7.91194 4.81289 8.16706 5.54167 8.16667Z" fill="#F2F9FF"/>
</svg>
