<svg width="32" height="24" viewBox="0 0 32 24" fill="none" xmlns="http://www.w3.org/2000/svg">
<g clip-path="url(#clip0_3028_3013)">
<path d="M32 20.3077C32 21.287 31.6254 22.2261 30.9586 22.9185C30.2918 23.611 29.3874 24 28.4444 24H3.55556C2.61256 24 1.70819 23.611 1.0414 22.9185C0.374602 22.2261 0 21.287 0 20.3077V3.69231C0 2.71305 0.374602 1.77389 1.0414 1.08145C1.70819 0.38901 2.61256 0 3.55556 0H28.4444C29.3874 0 30.2918 0.38901 30.9586 1.08145C31.6254 1.77389 32 2.71305 32 3.69231V20.3077Z" fill="#29AE66"/>
<path d="M3.55554 0H9.77776V24H3.55554V0Z" fill="#CA3745"/>
<path d="M3.55554 3.05723L4.2711 3.80031L4.07643 4.00246L4.36088 4.29785L4.54843 4.10308L5.13865 4.716L4.55554 5.32246L4.31288 5.06954L4.0551 5.33631L4.2711 5.55969L3.55554 6.216V5.86985L3.94754 5.484L3.73599 5.30769L4.27643 4.74738L4.58843 5.028L4.87999 4.72523L4.56799 4.40123L4.34932 4.62831L3.77954 4.03662L3.99288 3.81508L3.55554 3.40431V3.05723ZM3.55554 7.32738L4.2711 8.06954L4.07643 8.27169L4.36088 8.56708L4.54843 8.37231L5.13865 8.98523L4.55554 9.59169L4.31288 9.33877L4.0551 9.60554L4.2711 9.82892L3.55554 10.4852V10.1391L3.94754 9.75323L3.73599 9.57692L4.27643 9.01661L4.58843 9.29723L4.87999 8.99446L4.56799 8.67046L4.34932 8.89754L3.77954 8.30585L3.99288 8.08431L3.55554 7.67262V7.32738ZM3.55554 11.6825L4.2711 12.4255L4.07643 12.6277L4.36088 12.9231L4.54843 12.7283L5.13865 13.3412L4.55554 13.9468L4.31288 13.6948L4.0551 13.9615L4.2711 14.1849L3.55554 14.8412V14.4951L3.94754 14.1092L3.73599 13.9329L4.27643 13.3717L4.58843 13.6532L4.87999 13.3505L4.56799 13.0255L4.34932 13.2526L3.77954 12.6618L3.99288 12.4403L3.55554 12.0286V11.6825ZM3.55554 15.9803L4.2711 16.7234L4.07643 16.9255L4.36088 17.2209L4.54843 17.0262L5.13865 17.6391L4.55554 18.2455L4.31288 17.9926L4.0551 18.2594L4.2711 18.4828L3.55554 19.1391V18.7929L3.94754 18.4071L3.73599 18.2308L4.27643 17.6705L4.58843 17.9511L4.87999 17.6483L4.56799 17.3243L4.34932 17.5514L3.77954 16.9597L3.99288 16.7382L3.55554 16.3274V15.9803ZM9.77776 3.05723L9.06221 3.80031L9.25688 4.00246L8.97243 4.29785L8.78488 4.10308L8.19465 4.716L8.77776 5.32246L9.02043 5.06954L9.27821 5.33631L9.06221 5.55969L9.77776 6.216V5.86985L9.38576 5.484L9.59732 5.30769L9.05688 4.74738L8.74488 5.028L8.45332 4.72523L8.76532 4.40123L8.98399 4.62831L9.55376 4.03662L9.34043 3.81508L9.77776 3.40431V3.05723ZM4.0551 0.635077L4.31288 0.367384L4.55554 0.620308L5.13865 0.014769L5.12532 0H4.85776L4.87999 0.023077L4.58843 0.326769L4.27643 0.0452306L3.73599 0.605539L3.94754 0.782769L3.55554 1.16862V1.51477L4.2711 0.858461L4.0551 0.635077ZM9.59732 0.605539L9.05688 0.0452306L8.74488 0.326769L8.45332 0.023077L8.47554 0H8.20799L8.19465 0.014769L8.77776 0.620308L9.02043 0.367384L9.27821 0.635077L9.06221 0.858461L9.77776 1.51477V1.16862L9.38576 0.782769L9.59732 0.605539ZM9.77776 7.32738L9.06221 8.06954L9.25688 8.27169L8.97243 8.56708L8.78488 8.37231L8.19465 8.98523L8.77776 9.59169L9.02043 9.33877L9.27821 9.60554L9.06221 9.82892L9.77776 10.4852V10.1391L9.38576 9.75323L9.59732 9.57692L9.05688 9.01661L8.74488 9.29723L8.45332 8.99446L8.76532 8.67046L8.98399 8.89754L9.55376 8.30585L9.34043 8.08431L9.77776 7.67262V7.32738ZM9.77776 11.6825L9.06221 12.4255L9.25688 12.6277L8.97243 12.9231L8.78488 12.7283L8.19465 13.3412L8.77776 13.9468L9.02043 13.6948L9.27821 13.9615L9.06221 14.1849L9.77776 14.8412V14.4951L9.38576 14.1092L9.59732 13.9329L9.05688 13.3717L8.74488 13.6532L8.45332 13.3505L8.76532 13.0255L8.98399 13.2526L9.55376 12.6618L9.34043 12.4403L9.77776 12.0286V11.6825ZM9.77776 15.9803L9.06221 16.7234L9.25688 16.9255L8.97243 17.2209L8.78488 17.0262L8.19465 17.6391L8.77776 18.2455L9.02043 17.9926L9.27821 18.2594L9.06221 18.4828L9.77776 19.1391V18.7929L9.38576 18.4071L9.59732 18.2308L9.05688 17.6705L8.74488 17.9511L8.45332 17.6483L8.76532 17.3243L8.98399 17.5514L9.55376 16.9597L9.34043 16.7382L9.77776 16.3274V15.9803Z" fill="#FAAE29"/>
<path d="M8.90749 1.78884V1.4233L8.38927 1.09653H7.99994L7.3706 0.756836H5.9626L5.33327 1.09653H4.94393L4.42571 1.4233V1.78884L3.94482 2.09622V2.94268L4.42571 3.25007V3.6156L4.94393 3.94237H5.33327L5.9626 4.28207H7.3706L7.99994 3.94237H8.38927L8.90749 3.6156V3.25007L9.38838 2.94268V2.09622L8.90749 1.78884Z" fill="#29AE66"/>
<path d="M4.38062 2.5181V2.15717L4.79128 1.8941V1.58302L5.23395 1.30333H5.56639L6.10328 1.0144H6.70417V2.5181H4.38062Z" fill="#FAAE29"/>
<path d="M4.34424 2.519V2.88085L4.7549 3.143V3.455L5.19757 3.73377H5.52913L6.0669 4.0227H6.6669V2.519H4.34424ZM8.98957 2.519V2.15808L8.57891 1.89593V1.58393L8.13624 1.30516H7.80468L7.26691 1.01624H6.6669V2.519H8.98957Z" fill="white"/>
<path d="M8.9895 2.51904V2.88089L8.57884 3.14304V3.45504L8.13617 3.73381H7.80462L7.26684 4.02273H6.66684V2.51904H8.9895ZM4.38062 6.0572H4.9815V6.73012H4.38062V6.0572ZM4.9815 5.9612H5.58239V6.63412H4.9815V5.9612ZM5.58328 5.7212H6.18417V6.39412H5.58328V5.7212ZM8.36995 6.0572H8.97084V6.73012H8.36995V6.0572ZM7.76817 5.9612H8.36906V6.63412H7.76817V5.9612ZM7.16639 5.7212H7.76728V6.39412H7.16639V5.7212Z" fill="#FAAE29"/>
<path d="M6.18506 5.38428H7.16728V6.21597H6.18506V5.38428ZM4.38062 6.90828H4.9815V7.5812H4.38062V6.90828ZM4.9815 7.00428H5.58239V7.6772H4.9815V7.00428ZM5.58328 7.2452H6.18417V7.91812H5.58328V7.2452ZM8.36995 6.90828H8.97084V7.5812H8.36995V6.90828ZM7.76817 7.00428H8.36906V7.6772H7.76817V7.00428ZM7.16639 7.2452H7.76728V7.91812H7.16639V7.2452Z" fill="#FAAE29"/>
<path d="M6.18494 7.42334H7.16716V8.25503H6.18494V7.42334Z" fill="#FAAE29"/>
<path d="M7.59926 18.0997H5.76993L4.47571 18.96V20.1748L5.76993 21.0342H7.59926L8.89349 20.1748V18.96L7.59926 18.0997Z" fill="white"/>
<path d="M7.45152 9.82703H5.9173L4.83197 10.6209V11.7443L5.9173 12.5381H7.45241L8.53774 11.7443V10.6209L7.45152 9.82703ZM8.10574 11.6141L7.27286 12.2233H6.09597L5.26308 11.6141V10.752L6.09597 10.1427H7.27286L8.10574 10.752V11.6141ZM7.63819 18.0387H5.73063L4.38219 18.935V20.2006L5.73063 21.096H7.6373L8.98574 20.2006V18.935L7.63819 18.0387ZM8.57952 20.0889L7.46841 20.8264H5.89952L4.78841 20.0889V19.0458L5.89952 18.3083H7.4693L8.58041 19.0458L8.57952 20.0889ZM8.67019 15.1735V14.7646H8.2773V14.3095H5.08352V14.7646H4.64441V15.1735H4.25952V15.7698H4.64441V16.2119H5.08352V16.6929H8.27819V16.2119H8.67019V15.7698H9.12974V15.1735H8.67019ZM8.06841 16.4418H5.29686V14.5181H8.06841V16.4418Z" fill="#29AE66"/>
<path d="M6.66666 14.0769L4.98132 15.1154V15.7883L6.66666 16.9237L8.36977 15.8271V15.1154L6.66666 14.0769Z" fill="#29AE66"/>
<path d="M5.91187 19.1687L6.66653 18.7155L7.42031 19.1687V20.0724L6.66653 20.5238L5.91187 20.0724V19.1687Z" fill="#CA3745"/>
<path d="M7.42055 23.1545L7.20366 23.3077C7.20366 23.3077 7.01877 22.9421 6.51833 22.9034C6.01788 22.8646 5.74055 23.0769 5.31477 23.1055C4.88899 23.1341 3.57699 22.1031 4.25877 20.5237C4.87033 20.9806 4.55299 21.5381 4.8321 21.8077C5.11122 22.0772 5.40544 22.26 5.51833 22.5775C5.63211 22.8951 6.16366 22.632 6.51833 22.6929C7.07388 22.7889 7.42055 23.1545 7.42055 23.1545Z" fill="#FAAE29"/>
<path d="M5.91187 23.1545L6.12875 23.3077C6.12875 23.3077 6.31364 22.9421 6.81409 22.9034C7.31453 22.8646 7.59275 23.0769 8.01853 23.1055C8.44431 23.1341 9.75631 22.1031 9.07364 20.5237C8.46298 20.9806 8.77942 21.5381 8.50031 21.8077C8.2212 22.0772 7.92698 22.26 7.81409 22.5775C7.70031 22.8951 7.16875 22.632 6.81409 22.6929C6.25853 22.7889 5.91187 23.1545 5.91187 23.1545Z" fill="#FAAE29"/>
<path d="M16.16 3.03597C16.4574 3.30019 16.6964 3.628 16.8605 3.99697C17.0247 4.36594 17.1102 4.76737 17.1112 5.17381C17.1112 6.74304 15.8863 8.01504 14.3752 8.01504C13.8755 8.01305 13.3861 7.8677 12.9609 7.59504C13.2191 7.89041 13.5339 8.12656 13.885 8.28837C14.2361 8.45018 14.6159 8.53409 15 8.53474C15.7368 8.53474 16.4433 8.23082 16.9642 7.68985C17.4852 7.14888 17.7778 6.41517 17.7778 5.65012C17.7778 4.48704 17.1129 3.49289 16.16 3.03597ZM14.0854 2.64643L13.8667 3.09227L14.2072 3.44674L13.7316 3.36827L13.512 3.81412L13.4374 3.32027L12.9609 3.24181L13.3903 3.01473L13.3147 2.51904L13.656 2.8735L14.0854 2.64643Z" fill="white"/>
<path d="M15.446 3.50312L15.2274 3.94896L15.5687 4.30342L15.0923 4.22496L14.8727 4.67081L14.798 4.17604L14.3216 4.09758L14.7509 3.8705L14.6763 3.37573L15.0167 3.73019L15.446 3.50312ZM14.0852 4.11696L13.8665 4.56281L14.2069 4.91727L13.7314 4.83881L13.5118 5.28466L13.4372 4.78989L12.9607 4.71143L13.39 4.48435L13.3145 3.98958L13.6558 4.34404L14.0852 4.11696ZM12.6683 4.86373L12.4496 5.30958L12.7909 5.66404L12.3145 5.58558L12.0949 6.03235L12.0203 5.53758L11.5438 5.45912L11.9732 5.23204L11.8985 4.73727L12.2389 5.09173L12.6683 4.86373ZM14.0852 5.69635L13.8665 6.14219L14.2069 6.49666L13.7314 6.41819L13.5118 6.86404L13.4372 6.36927L12.9607 6.29081L13.39 6.06373L13.3145 5.56896L13.6558 5.92342L14.0852 5.69635Z" fill="white"/>
<path d="M6.27734 14.5579H7.09068V15.1256H6.27734V14.5579ZM6.27734 15.8511H7.09068V16.4188H6.27734V15.8511Z" fill="#CA3745"/>
<path d="M4.98132 15.2161H6.0951V15.7838H4.98132V15.2161ZM7.27821 15.2161H8.36977V15.7838H7.27821V15.2161Z" fill="#FAAE29"/>
</g>
<defs>
<clipPath id="clip0_3028_3013">
<rect width="32" height="24" rx="4" fill="white"/>
</clipPath>
</defs>
</svg>
