<svg width="44" height="44" viewBox="0 0 44 44" fill="none" xmlns="http://www.w3.org/2000/svg">
<g clip-path="url(#clip0_2010_3759)">
<path d="M30.3498 27.6996C30.3837 27.7931 30.4284 27.8823 30.4828 27.9656C30.5394 28.0505 30.6045 28.1294 30.6772 28.2009C30.751 28.2712 30.8296 28.3362 30.9126 28.3954C30.9958 28.4498 31.0851 28.4944 31.1786 28.5284C31.2703 28.5698 31.3665 28.6006 31.4651 28.6205C31.5627 28.6408 31.6622 28.6511 31.7619 28.6512C31.8616 28.6516 31.9611 28.6413 32.0586 28.6205C32.1602 28.5992 32.2596 28.5684 32.3553 28.5284C32.4456 28.4944 32.5315 28.4497 32.6112 28.3954C32.7804 28.2807 32.9263 28.1348 33.0409 27.9656C33.0947 27.8803 33.1426 27.7914 33.1842 27.6996C33.2175 27.6059 33.2449 27.5102 33.266 27.413C33.307 27.2173 33.307 27.0153 33.266 26.8196C33.2449 26.7224 33.2175 26.6267 33.1842 26.533C33.1426 26.4412 33.0947 26.3523 33.0409 26.267C32.9263 26.0977 32.7804 25.9519 32.6112 25.8372C32.5294 25.7835 32.4439 25.7356 32.3553 25.694C32.253 25.6633 32.1609 25.6326 32.0586 25.6121C31.8629 25.5712 31.6608 25.5712 31.4651 25.6121C31.368 25.6333 31.2723 25.6606 31.1786 25.694C31.0867 25.7356 30.9978 25.7834 30.9126 25.8372C30.8296 25.8964 30.751 25.9614 30.6772 26.0316C30.6045 26.1032 30.5394 26.1821 30.4828 26.267C30.4284 26.3503 30.3837 26.4395 30.3498 26.533C30.3084 26.6248 30.2775 26.7209 30.2577 26.8196C30.2168 27.0153 30.2168 27.2173 30.2577 27.413C30.2775 27.5117 30.3084 27.6078 30.3498 27.6996Z" fill="#FFD288"/>
<path d="M42.4651 8.18605H31.7209V1.53488C31.7209 1.12781 31.5592 0.737404 31.2714 0.449557C30.9835 0.16171 30.5931 0 30.186 0L13.814 0C13.4069 0 13.0165 0.16171 12.7286 0.449557C12.4408 0.737404 12.2791 1.12781 12.2791 1.53488V8.18605H1.53488C1.12781 8.18605 0.737404 8.34776 0.449557 8.6356C0.16171 8.92345 0 9.31385 0 9.72093L0 27.1163C0 27.5234 0.16171 27.9138 0.449557 28.2016C0.737404 28.4895 1.12781 28.6512 1.53488 28.6512H3.26112L5.12958 42.6698C5.17914 43.0381 5.36069 43.376 5.64053 43.6207C5.92036 43.8653 6.27947 44.0001 6.65116 44H37.3488C37.7205 44.0001 38.0796 43.8653 38.3595 43.6207C38.6393 43.376 38.8209 43.0381 38.8704 42.6698L40.7389 28.6512H42.4651C42.8722 28.6512 43.2626 28.4895 43.5504 28.2016C43.8383 27.9138 44 27.5234 44 27.1163V9.72093C44 9.31385 43.8383 8.92345 43.5504 8.6356C43.2626 8.34776 42.8722 8.18605 42.4651 8.18605ZM15.3488 3.06977H28.6512V8.18605H15.3488V3.06977ZM40.9302 25.5814H37.2209C36.8139 25.5814 36.4234 25.7431 36.1356 26.031C35.8478 26.3188 35.686 26.7092 35.686 27.1163C35.686 27.5234 35.8478 27.9138 36.1356 28.2016C36.4234 28.4895 36.8139 28.6512 37.2209 28.6512H37.6425L36.0053 40.9302H7.9947L6.35749 28.6512H15.3488V31.2093C15.3488 31.6164 15.5105 32.0068 15.7984 32.2946C16.0862 32.5825 16.4766 32.7442 16.8837 32.7442H27.1163C27.5234 32.7442 27.9138 32.5825 28.2016 32.2946C28.4895 32.0068 28.6512 31.6164 28.6512 31.2093V23.0233C28.6512 22.6162 28.4895 22.2258 28.2016 21.9379C27.9138 21.6501 27.5234 21.4884 27.1163 21.4884H16.8837C16.4766 21.4884 16.0862 21.6501 15.7984 21.9379C15.5105 22.2258 15.3488 22.6162 15.3488 23.0233V25.5814H3.06977V11.2558H40.9302V25.5814ZM18.4186 24.5581H25.5814V29.6744H18.4186V24.5581Z" fill="#FFD288"/>
</g>
<defs>
<clipPath id="clip0_2010_3759">
<rect width="44" height="44" fill="white"/>
</clipPath>
</defs>
</svg>
