<svg width="44" height="44" viewBox="0 0 44 44" fill="none" xmlns="http://www.w3.org/2000/svg">
<path d="M42 31.5H37C36.6022 31.5 36.2206 31.342 35.9393 31.0607C35.658 30.7794 35.5 30.3978 35.5 30C35.5 29.6022 35.658 29.2207 35.9393 28.9393C36.2206 28.658 36.6022 28.5 37 28.5H40.5V24.154C40.4987 22.9201 40.0079 21.7371 39.1354 20.8646C38.2629 19.9921 37.0799 19.5013 35.846 19.5H33C32.7531 19.5 32.51 19.439 32.2922 19.3225C32.0745 19.2059 31.889 19.0375 31.752 18.832L28.035 13.258C27.4705 12.4088 26.7047 11.7126 25.8057 11.2313C24.9068 10.7501 23.9027 10.4989 22.883 10.5H12.77C10.3123 10.5027 7.95593 11.4802 6.21804 13.218C4.48015 14.9559 3.50265 17.3123 3.5 19.77V28.5H7C7.39782 28.5 7.77936 28.658 8.06066 28.9393C8.34196 29.2207 8.5 29.6022 8.5 30C8.5 30.3978 8.34196 30.7794 8.06066 31.0607C7.77936 31.342 7.39782 31.5 7 31.5H2C1.60218 31.5 1.22064 31.342 0.93934 31.0607C0.658035 30.7794 0.5 30.3978 0.5 30L0.5 19.77C0.503441 16.5169 1.79727 13.3979 4.0976 11.0976C6.39793 8.79728 9.51685 7.50345 12.77 7.5H22.883C24.3965 7.49843 25.8869 7.87133 27.2213 8.58548C28.5557 9.29963 29.6927 10.3328 30.531 11.593L33.8 16.5H35.843C37.8728 16.5013 39.8192 17.3081 41.2548 18.7431C42.6904 20.1781 43.4979 22.1242 43.5 24.154V30C43.5 30.3978 43.342 30.7794 43.0607 31.0607C42.7794 31.342 42.3978 31.5 42 31.5Z" fill="#B0E6A1"/>
<path d="M8.41003 19.5C8.18684 19.5028 7.96585 19.4557 7.76317 19.3622C7.56049 19.2687 7.38122 19.1312 7.23845 18.9596C7.09567 18.7881 6.99298 18.5868 6.93787 18.3705C6.88275 18.1542 6.8766 17.9284 6.91986 17.7094C6.96313 17.4904 7.05471 17.2839 7.18794 17.1048C7.32116 16.9257 7.49268 16.7786 7.68997 16.6742C7.88726 16.5699 8.10536 16.5108 8.32837 16.5014C8.55137 16.4921 8.77366 16.5326 8.97903 16.62C9.07093 16.6531 9.15855 16.6971 9.24003 16.751C9.32093 16.809 9.39777 16.8725 9.47003 16.941C9.75093 17.2223 9.90871 17.6035 9.90871 18.001C9.90871 18.3985 9.75093 18.7798 9.47003 19.061C9.39726 19.1289 9.32045 19.1924 9.24003 19.251C9.15609 19.3029 9.06891 19.3493 8.97903 19.39C8.88745 19.4214 8.79433 19.4481 8.70003 19.47C8.60455 19.4894 8.50743 19.4994 8.41003 19.5Z" fill="#B0E6A1"/>
<path d="M33.0005 19.5H13.1885C12.7907 19.5 12.4091 19.342 12.1278 19.0607C11.8465 18.7794 11.6885 18.3978 11.6885 18C11.6885 17.6022 11.8465 17.2206 12.1278 16.9393C12.4091 16.658 12.7907 16.5 13.1885 16.5H33.0005C33.3983 16.5 33.7798 16.658 34.0611 16.9393C34.3424 17.2206 34.5005 17.6022 34.5005 18C34.5005 18.3978 34.3424 18.7794 34.0611 19.0607C33.7798 19.342 33.3983 19.5 33.0005 19.5Z" fill="#B0E6A1"/>
<path d="M18.9234 19.4239C18.6075 19.4233 18.2999 19.323 18.0444 19.1373C17.7889 18.9517 17.5985 18.6901 17.5004 18.3899L14.5744 9.46687C14.4506 9.08867 14.4822 8.67681 14.6622 8.3219C14.8421 7.96699 15.1557 7.69809 15.5339 7.57437C15.9121 7.45064 16.3239 7.48223 16.6788 7.66217C17.0337 7.84211 17.3026 8.15567 17.4264 8.53387L20.3494 17.4569C20.4731 17.8349 20.4415 18.2467 20.2617 18.6015C20.0818 18.9563 19.7684 19.2251 19.3904 19.3489C19.2395 19.3979 19.082 19.4232 18.9234 19.4239Z" fill="#B0E6A1"/>
<path d="M12 36.5C10.7144 36.5 9.45772 36.1188 8.3888 35.4046C7.31988 34.6903 6.48676 33.6752 5.99479 32.4874C5.50282 31.2997 5.37409 29.9928 5.6249 28.7319C5.8757 27.471 6.49477 26.3129 7.40381 25.4038C8.31285 24.4948 9.47104 23.8757 10.7319 23.6249C11.9928 23.3741 13.2997 23.5028 14.4874 23.9948C15.6752 24.4868 16.6903 25.3199 17.4046 26.3888C18.1188 27.4577 18.5 28.7144 18.5 30C18.4979 31.7233 17.8124 33.3753 16.5939 34.5939C15.3753 35.8124 13.7233 36.4979 12 36.5ZM12 26.5C11.3078 26.5 10.6311 26.7053 10.0555 27.0899C9.47993 27.4744 9.03133 28.0211 8.76642 28.6606C8.50152 29.3002 8.43221 30.0039 8.56725 30.6828C8.7023 31.3618 9.03565 31.9854 9.52513 32.4749C10.0146 32.9644 10.6383 33.2977 11.3172 33.4328C11.9961 33.5678 12.6999 33.4985 13.3394 33.2336C13.9789 32.9687 14.5256 32.5201 14.9101 31.9445C15.2947 31.3689 15.5 30.6922 15.5 30C15.5 29.0717 15.1313 28.1815 14.4749 27.5251C13.8185 26.8688 12.9283 26.5 12 26.5Z" fill="#B0E6A1"/>
<path d="M32 36.5C30.7144 36.5 29.4577 36.1188 28.3888 35.4046C27.3199 34.6903 26.4868 33.6752 25.9948 32.4874C25.5028 31.2997 25.3741 29.9928 25.6249 28.7319C25.8757 27.471 26.4948 26.3129 27.4038 25.4038C28.3129 24.4948 29.471 23.8757 30.7319 23.6249C31.9928 23.3741 33.2997 23.5028 34.4874 23.9948C35.6752 24.4868 36.6903 25.3199 37.4046 26.3888C38.1188 27.4577 38.5 28.7144 38.5 30C38.4979 31.7233 37.8124 33.3753 36.5939 34.5939C35.3753 35.8124 33.7233 36.4979 32 36.5ZM32 26.5C31.3078 26.5 30.6311 26.7053 30.0555 27.0899C29.4799 27.4744 29.0313 28.0211 28.7664 28.6606C28.5015 29.3002 28.4322 30.0039 28.5673 30.6828C28.7023 31.3618 29.0356 31.9854 29.5251 32.4749C30.0146 32.9644 30.6383 33.2977 31.3172 33.4328C31.9961 33.5678 32.6999 33.4985 33.3394 33.2336C33.9789 32.9687 34.5256 32.5201 34.9101 31.9445C35.2947 31.3689 35.5 30.6922 35.5 30C35.5 29.0717 35.1313 28.1815 34.4749 27.5251C33.8185 26.8688 32.9283 26.5 32 26.5Z" fill="#B0E6A1"/>
<path d="M27 31.5H17C16.6022 31.5 16.2206 31.342 15.9393 31.0607C15.658 30.7794 15.5 30.3978 15.5 30C15.5 29.6022 15.658 29.2206 15.9393 28.9393C16.2206 28.658 16.6022 28.5 17 28.5H27C27.3978 28.5 27.7794 28.658 28.0607 28.9393C28.342 29.2206 28.5 29.6022 28.5 30C28.5 30.3978 28.342 30.7794 28.0607 31.0607C27.7794 31.342 27.3978 31.5 27 31.5Z" fill="#B0E6A1"/>
</svg>
