<svg width="44" height="44" viewBox="0 0 44 44" fill="none" xmlns="http://www.w3.org/2000/svg">
<path d="M43.5197 16.9998C43.5171 15.5381 43.0225 14.1199 42.1154 12.9737C41.2083 11.8275 39.9417 11.0202 38.5197 10.6818V3.99981C38.5196 3.76767 38.4657 3.53872 38.3621 3.33096C38.2586 3.1232 38.1082 2.94231 37.9229 2.80253C37.7375 2.66275 37.5223 2.5679 37.2941 2.52543C37.0658 2.48297 36.8309 2.49405 36.6077 2.55781L15.8097 8.49981H9.01967C6.86879 8.48834 4.79366 9.29328 3.21314 10.7522C1.63262 12.2111 0.66443 14.2153 0.504005 16.3602C0.34358 18.5051 1.00287 20.631 2.34879 22.3088C3.69471 23.9865 5.62702 25.0912 7.75567 25.3998L10.5457 40.2808C10.6111 40.6238 10.7941 40.9332 11.0632 41.1557C11.3322 41.3783 11.6705 41.4999 12.0197 41.4998H21.0197C21.2416 41.4998 21.4608 41.4506 21.6614 41.3557C21.8619 41.2608 22.039 41.1225 22.1797 40.9509C22.3204 40.7793 22.4213 40.5786 22.4751 40.3633C22.5288 40.148 22.5342 39.9234 22.4907 39.7058L19.8817 26.6638L36.6077 31.4428C36.831 31.5066 37.066 31.5177 37.2943 31.4751C37.5226 31.4326 37.7379 31.3377 37.9233 31.1978C38.1086 31.0579 38.259 30.8769 38.3625 30.669C38.466 30.4611 38.5198 30.232 38.5197 29.9998V23.3188C39.9418 22.9804 41.2086 22.1729 42.1157 21.0265C43.0228 19.8802 43.5174 18.4617 43.5197 16.9998ZM3.51967 16.9998C3.52126 15.5416 4.10123 14.1436 5.13234 13.1125C6.16344 12.0814 7.56147 11.5014 9.01967 11.4998H14.5197V15.4998H13.2387C12.8408 15.4998 12.4593 15.6578 12.178 15.9392C11.8967 16.2205 11.7387 16.602 11.7387 16.9998C11.7387 17.3976 11.8967 17.7792 12.178 18.0605C12.4593 18.3418 12.8408 18.4998 13.2387 18.4998H14.5197V22.4998H9.01967C7.56147 22.4982 6.16344 21.9183 5.13234 20.8871C4.10123 19.856 3.52126 18.458 3.51967 16.9998ZM19.1897 38.4998H13.2647L10.8267 25.4998H15.8097L16.6377 25.7358L19.1897 38.4998ZM35.5197 28.0128L17.5197 22.8688V11.1318L35.5197 5.98881V28.0128ZM38.5197 20.1498V13.8498C39.1182 14.1304 39.6244 14.5757 39.979 15.1336C40.3335 15.6914 40.5219 16.3388 40.5219 16.9998C40.5219 17.6608 40.3335 18.3082 39.979 18.866C39.6244 19.4239 39.1182 19.8692 38.5197 20.1498Z" fill="#FFD288"/>
<path d="M9.70967 18.0598C9.99106 17.7787 10.1493 17.3975 10.1497 16.9998C10.1449 16.6027 9.98733 16.2227 9.70967 15.9388C9.42052 15.6693 9.03995 15.5194 8.64467 15.5194C8.2494 15.5194 7.86882 15.6693 7.57967 15.9388C7.30488 16.2238 7.15082 16.6039 7.14967 16.9998C7.14541 17.1951 7.18291 17.3891 7.25967 17.5688C7.32857 17.7539 7.4379 17.9213 7.57967 18.0588C7.86243 18.3377 8.24251 18.4958 8.63967 18.4998C8.83812 18.499 9.03473 18.4617 9.21967 18.3898C9.40039 18.3081 9.56604 18.1965 9.70967 18.0598Z" fill="#FFD288"/>
</svg>
