<svg width="44" height="44" viewBox="0 0 44 44" fill="none" xmlns="http://www.w3.org/2000/svg">
<path d="M41.999 36.5H37.999C37.6011 36.5 37.2196 36.342 36.9383 36.0607C36.657 35.7794 36.499 35.3978 36.499 35C36.499 34.6022 36.657 34.2206 36.9383 33.9393C37.2196 33.658 37.6011 33.5 37.999 33.5H40.499V25.5H25.999C25.6011 25.5 25.2196 25.342 24.9383 25.0607C24.657 24.7794 24.499 24.3978 24.499 24V5.5H3.49896V23.719C3.49896 24.1168 3.34093 24.4984 3.05962 24.7797C2.77832 25.061 2.39679 25.219 1.99896 25.219C1.60114 25.219 1.21961 25.061 0.938302 24.7797C0.656998 24.4984 0.498962 24.1168 0.498962 23.719L0.498962 4C0.498962 3.60218 0.656998 3.22064 0.938302 2.93934C1.21961 2.65804 1.60114 2.5 1.99896 2.5H25.999C26.3968 2.5 26.7783 2.65804 27.0596 2.93934C27.3409 3.22064 27.499 3.60218 27.499 4V22.5H41.999C42.3968 22.5 42.7783 22.658 43.0596 22.9393C43.3409 23.2206 43.499 23.6022 43.499 24V35C43.499 35.3978 43.3409 35.7794 43.0596 36.0607C42.7783 36.342 42.3968 36.5 41.999 36.5Z" fill="#B0E6A1"/>
<path d="M1.99898 29.6899C1.90151 29.6904 1.80429 29.6803 1.70898 29.6599C1.61256 29.6406 1.51863 29.6104 1.42898 29.5699C1.33727 29.5333 1.25005 29.4863 1.16898 29.4299C1.08579 29.3788 1.00864 29.3184 0.938977 29.2499C0.870296 29.1779 0.806804 29.101 0.748977 29.0199C0.695789 28.9386 0.652167 28.8513 0.618977 28.7599C0.578554 28.6703 0.548363 28.5764 0.528977 28.4799C0.509109 28.3846 0.499057 28.2874 0.498977 28.1899C0.498102 27.9929 0.536569 27.7976 0.612123 27.6156C0.687677 27.4336 0.798799 27.2685 0.938977 27.1299C1.22603 26.8602 1.6051 26.7101 1.99898 26.7101C2.39286 26.7101 2.77193 26.8602 3.05898 27.1299C3.34036 27.411 3.49863 27.7923 3.49898 28.1899C3.4989 28.2874 3.48884 28.3846 3.46898 28.4799C3.44828 28.5749 3.42156 28.6684 3.38898 28.7599C3.34833 28.8497 3.30155 28.9366 3.24898 29.0199C3.19115 29.101 3.12766 29.1779 3.05898 29.2499C2.77696 29.5299 2.39632 29.6879 1.99898 29.6899Z" fill="#B0E6A1"/>
<path d="M6.99896 36.5H1.99896C1.60114 36.5 1.21961 36.342 0.938302 36.0607C0.656998 35.7794 0.498962 35.3978 0.498962 35C0.498962 34.6022 0.656998 34.2206 0.938302 33.9393C1.21961 33.658 1.60114 33.5 1.99896 33.5H6.99896C7.39679 33.5 7.77832 33.658 8.05962 33.9393C8.34093 34.2206 8.49896 34.6022 8.49896 35C8.49896 35.3978 8.34093 35.7794 8.05962 36.0607C7.77832 36.342 7.39679 36.5 6.99896 36.5Z" fill="#B0E6A1"/>
<path d="M41.999 25.5001C41.7449 25.5008 41.4947 25.4369 41.2721 25.3144C41.0494 25.192 40.8615 25.015 40.726 24.8001L37.918 20.3001C37.3845 19.4408 36.6401 18.7324 35.7554 18.2423C34.8707 17.7521 33.8753 17.4966 32.864 17.5001H25.999C25.6011 17.5001 25.2196 17.342 24.9383 17.0607C24.657 16.7794 24.499 16.3979 24.499 16.0001C24.499 15.6022 24.657 15.2207 24.9383 14.9394C25.2196 14.6581 25.6011 14.5001 25.999 14.5001H32.864C34.3849 14.4948 35.8818 14.879 37.2122 15.6161C38.5425 16.3533 39.662 17.4187 40.464 18.7111L43.273 23.2051C43.415 23.4323 43.4935 23.6933 43.5005 23.9612C43.5074 24.229 43.4425 24.4938 43.3124 24.7281C43.1824 24.9623 42.992 25.1575 42.761 25.2932C42.53 25.429 42.2669 25.5004 41.999 25.5001Z" fill="#B0E6A1"/>
<path d="M11.999 41.5C10.7134 41.5 9.45668 41.1188 8.38776 40.4046C7.31884 39.6903 6.48572 38.6752 5.99375 37.4874C5.50178 36.2997 5.37306 34.9928 5.62386 33.7319C5.87466 32.471 6.49373 31.3129 7.40277 30.4038C8.31181 29.4948 9.47 28.8757 10.7309 28.6249C11.9918 28.3741 13.2987 28.5028 14.4864 28.9948C15.6741 29.4868 16.6893 30.3199 17.4035 31.3888C18.1177 32.4577 18.499 33.7144 18.499 35C18.4968 36.7233 17.8113 38.3753 16.5928 39.5939C15.3743 40.8124 13.7222 41.4979 11.999 41.5ZM11.999 31.5C11.3067 31.5 10.63 31.7053 10.0545 32.0899C9.4789 32.4744 9.03029 33.0211 8.76539 33.6606C8.50048 34.3002 8.43117 35.0039 8.56622 35.6828C8.70126 36.3618 9.03461 36.9854 9.52409 37.4749C10.0136 37.9644 10.6372 38.2977 11.3161 38.4327C11.9951 38.5678 12.6988 38.4985 13.3384 38.2336C13.9779 37.9687 14.5245 37.5201 14.9091 36.9445C15.2937 36.3689 15.499 35.6922 15.499 35C15.499 34.0717 15.1302 33.1815 14.4738 32.5251C13.8175 31.8688 12.9272 31.5 11.999 31.5Z" fill="#B0E6A1"/>
<path d="M32.999 41.5C31.7134 41.5 30.4567 41.1188 29.3878 40.4046C28.3188 39.6903 27.4857 38.6752 26.9937 37.4874C26.5018 36.2997 26.3731 34.9928 26.6239 33.7319C26.8747 32.471 27.4937 31.3129 28.4028 30.4038C29.3118 29.4948 30.47 28.8757 31.7309 28.6249C32.9918 28.3741 34.2987 28.5028 35.4864 28.9948C36.6741 29.4868 37.6893 30.3199 38.4035 31.3888C39.1177 32.4577 39.499 33.7144 39.499 35C39.4968 36.7233 38.8113 38.3753 37.5928 39.5939C36.3743 40.8124 34.7222 41.4979 32.999 41.5ZM32.999 31.5C32.3067 31.5 31.63 31.7053 31.0545 32.0899C30.4789 32.4744 30.0303 33.0211 29.7654 33.6606C29.5005 34.3002 29.4312 35.0039 29.5662 35.6828C29.7013 36.3618 30.0346 36.9854 30.5241 37.4749C31.0136 37.9644 31.6372 38.2977 32.3162 38.4327C32.9951 38.5678 33.6988 38.4985 34.3384 38.2336C34.9779 37.9687 35.5245 37.5201 35.9091 36.9445C36.2937 36.3689 36.499 35.6922 36.499 35C36.499 34.0717 36.1302 33.1815 35.4738 32.5251C34.8175 31.8688 33.9272 31.5 32.999 31.5Z" fill="#B0E6A1"/>
<path d="M27.999 36.5H16.999C16.6011 36.5 16.2196 36.342 15.9383 36.0607C15.657 35.7794 15.499 35.3978 15.499 35C15.499 34.6022 15.657 34.2206 15.9383 33.9393C16.2196 33.658 16.6011 33.5 16.999 33.5H27.999C28.3968 33.5 28.7783 33.658 29.0596 33.9393C29.3409 34.2206 29.499 34.6022 29.499 35C29.499 35.3978 29.3409 35.7794 29.0596 36.0607C28.7783 36.342 28.3968 36.5 27.999 36.5Z" fill="#B0E6A1"/>
<path d="M31.999 17.5C31.6011 17.5 31.2196 17.342 30.9383 17.0607C30.657 16.7794 30.499 16.3978 30.499 16V13C30.499 12.6022 30.657 12.2206 30.9383 11.9393C31.2196 11.658 31.6011 11.5 31.999 11.5C32.3968 11.5 32.7783 11.658 33.0596 11.9393C33.3409 12.2206 33.499 12.6022 33.499 13V16C33.499 16.3978 33.3409 16.7794 33.0596 17.0607C32.7783 17.342 32.3968 17.5 31.999 17.5Z" fill="#B0E6A1"/>
</svg>
