<svg width="44" height="44" viewBox="0 0 44 44" fill="none" xmlns="http://www.w3.org/2000/svg">
<g clip-path="url(#clip0_2010_3477)">
<path d="M39 31.5002H36C35.6022 31.5002 35.2206 31.3422 34.9393 31.0609C34.658 30.7796 34.5 30.3981 34.5 30.0002V16.0002C34.5 15.6024 34.658 15.2209 34.9393 14.9396C35.2206 14.6583 35.6022 14.5002 36 14.5002C36.3978 14.5002 36.7794 14.6583 37.0607 14.9396C37.342 15.2209 37.5 15.6024 37.5 16.0002V17.5002H39C40.1931 17.5016 41.3369 17.9761 42.1805 18.8197C43.0241 19.6634 43.4987 20.8072 43.5 22.0002V27.0002C43.4987 28.1933 43.0241 29.3371 42.1805 30.1808C41.3369 31.0244 40.1931 31.4989 39 31.5002ZM37.5 28.5002H39C39.3978 28.5002 39.7794 28.3422 40.0607 28.0609C40.342 27.7796 40.5 27.3981 40.5 27.0002V22.0002C40.5 21.6024 40.342 21.2209 40.0607 20.9396C39.7794 20.6583 39.3978 20.5002 39 20.5002H37.5V28.5002Z" fill="#FFD288"/>
<path d="M34.79 11.7902C34.6929 11.7939 34.5957 11.7872 34.5 11.7702C34.4007 11.7494 34.3036 11.7193 34.21 11.6802C34.1215 11.6435 34.0376 11.5965 33.96 11.5402C33.8773 11.4883 33.8002 11.428 33.73 11.3602C33.6613 11.2881 33.5978 11.2113 33.54 11.1302C33.4874 11.0469 33.4406 10.96 33.4 10.8702C33.37 10.7802 33.34 10.6802 33.32 10.5902C33.3006 10.4948 33.2906 10.3976 33.29 10.3002C33.2901 9.89954 33.4482 9.51506 33.73 9.23022C33.8002 9.16242 33.8773 9.1021 33.96 9.05022C34.0376 8.99396 34.1215 8.94698 34.21 8.91022C34.3036 8.87116 34.4007 8.84103 34.5 8.82022C34.7414 8.77777 34.9894 8.79277 35.224 8.864C35.4585 8.93523 35.673 9.06069 35.85 9.23022C36.1318 9.51506 36.2899 9.89954 36.29 10.3002C36.2901 10.4965 36.2492 10.6906 36.17 10.8702C36.1368 10.9616 36.0932 11.0488 36.04 11.1302C35.9822 11.2113 35.9187 11.2881 35.85 11.3602C35.5654 11.635 35.1856 11.7891 34.79 11.7902Z" fill="#FFD288"/>
<path d="M8 31.5002H5C3.80693 31.4989 2.66311 31.0244 1.81948 30.1808C0.975854 29.3371 0.501323 28.1933 0.5 27.0002L0.5 22.0002C0.501323 20.8072 0.975854 19.6633 1.81948 18.8197C2.66311 17.9761 3.80693 17.5016 5 17.5002H6.5V16.0002C6.4999 12.9699 7.38807 10.006 9.05468 7.4751C10.7213 4.94422 13.0932 2.95737 15.8771 1.76031C18.661 0.563252 21.7347 0.208484 24.7181 0.739889C27.7015 1.27129 30.4637 2.66556 32.663 4.75024C32.9412 5.02623 33.1004 5.40014 33.1064 5.79198C33.1125 6.18382 32.965 6.56247 32.6954 6.84693C32.4258 7.13138 32.0557 7.29905 31.6641 7.31406C31.2725 7.32906 30.8905 7.19023 30.6 6.92724C28.8263 5.24575 26.5987 4.12111 24.1925 3.69242C21.7864 3.26373 19.3074 3.5498 17.0622 4.51526C14.8169 5.48071 12.9039 7.08319 11.5599 9.12446C10.2158 11.1657 9.49968 13.5562 9.5 16.0002V30.0002C9.5 30.3981 9.34196 30.7796 9.06066 31.0609C8.77936 31.3422 8.39782 31.5002 8 31.5002ZM5 20.5002C4.60218 20.5002 4.22064 20.6583 3.93934 20.9396C3.65804 21.2209 3.5 21.6024 3.5 22.0002V27.0002C3.5 27.3981 3.65804 27.7796 3.93934 28.0609C4.22064 28.3422 4.60218 28.5002 5 28.5002H6.5V20.5002H5Z" fill="#FFD288"/>
<path d="M24 43.5002H22C21.0717 43.5002 20.1815 43.1315 19.5251 42.4751C18.8687 41.8187 18.5 40.9285 18.5 40.0002C18.5 39.072 18.8687 38.1817 19.5251 37.5254C20.1815 36.869 21.0717 36.5002 22 36.5002H24C24.9283 36.5002 25.8185 36.869 26.4749 37.5254C27.1313 38.1817 27.5 39.072 27.5 40.0002C27.5 40.9285 27.1313 41.8187 26.4749 42.4751C25.8185 43.1315 24.9283 43.5002 24 43.5002ZM22 39.5002C21.8674 39.5002 21.7402 39.5529 21.6464 39.6467C21.5527 39.7405 21.5 39.8676 21.5 40.0002C21.5 40.1329 21.5527 40.26 21.6464 40.3538C21.7402 40.4476 21.8674 40.5002 22 40.5002H24C24.1326 40.5002 24.2598 40.4476 24.3536 40.3538C24.4473 40.26 24.5 40.1329 24.5 40.0002C24.5 39.8676 24.4473 39.7405 24.3536 39.6467C24.2598 39.5529 24.1326 39.5002 24 39.5002H22Z" fill="#FFD288"/>
<path d="M30 41.5002H26C25.6022 41.5002 25.2206 41.3422 24.9393 41.0609C24.658 40.7796 24.5 40.3981 24.5 40.0002C24.5 39.6024 24.658 39.2209 24.9393 38.9396C25.2206 38.6583 25.6022 38.5002 26 38.5002H30C31.1931 38.4989 32.3369 38.0244 33.1805 37.1808C34.0241 36.3371 34.4987 35.1933 34.5 34.0002V30.0002C34.5 29.6024 34.658 29.2209 34.9393 28.9396C35.2206 28.6583 35.6022 28.5002 36 28.5002C36.3978 28.5002 36.7794 28.6583 37.0607 28.9396C37.342 29.2209 37.5 29.6024 37.5 30.0002V34.0002C37.4979 35.9887 36.707 37.8951 35.301 39.3012C33.8949 40.7073 31.9885 41.4981 30 41.5002Z" fill="#FFD288"/>
<path d="M17 25.5002C16.6022 25.5002 16.2206 25.3422 15.9393 25.0609C15.658 24.7796 15.5 24.3981 15.5 24.0002V23.0002C15.5 22.6024 15.658 22.2209 15.9393 21.9396C16.2206 21.6583 16.6022 21.5002 17 21.5002C17.3978 21.5002 17.7794 21.6583 18.0607 21.9396C18.342 22.2209 18.5 22.6024 18.5 23.0002V24.0002C18.5 24.3981 18.342 24.7796 18.0607 25.0609C17.7794 25.3422 17.3978 25.5002 17 25.5002Z" fill="#FFD288"/>
<path d="M27 25.5002C26.6022 25.5002 26.2206 25.3422 25.9393 25.0609C25.658 24.7796 25.5 24.3981 25.5 24.0002V23.0002C25.5 22.6024 25.658 22.2209 25.9393 21.9396C26.2206 21.6583 26.6022 21.5002 27 21.5002C27.3978 21.5002 27.7794 21.6583 28.0607 21.9396C28.342 22.2209 28.5 22.6024 28.5 23.0002V24.0002C28.5 24.3981 28.342 24.7796 28.0607 25.0609C27.7794 25.3422 27.3978 25.5002 27 25.5002Z" fill="#FFD288"/>
</g>
<defs>
<clipPath id="clip0_2010_3477">
<rect width="44" height="44" fill="white"/>
</clipPath>
</defs>
</svg>
