<svg width="234" height="35" viewBox="0 0 234 35" fill="none" xmlns="http://www.w3.org/2000/svg">
<path d="M0.57 0.399998H19.95V4.58H12.464V27H8.094V4.58H0.57V0.399998ZM32.6785 18.184V8H36.7825V27H32.6785V24.568C31.4118 26.5187 29.4485 27.494 26.7885 27.494C24.5845 27.494 22.8112 26.7973 21.4685 25.404C20.1512 23.9853 19.4925 22.0727 19.4925 19.666V8H23.5965V19.248C23.5965 20.6667 23.9765 21.756 24.7365 22.516C25.4965 23.276 26.5352 23.656 27.8525 23.656C29.3472 23.656 30.5252 23.2 31.3865 22.288C32.2478 21.3507 32.6785 19.9827 32.6785 18.184ZM45.6855 8V11.192C46.7242 8.836 48.6748 7.658 51.5375 7.658V12.104C49.9922 12.0027 48.6242 12.3827 47.4335 13.244C46.2682 14.08 45.6855 15.4733 45.6855 17.424V27H41.5815V8H45.6855ZM62.7018 17.31L71.3658 27H66.4638L58.6738 18.222V27H54.5698V0.399998H58.6738V16.398L66.0458 8H71.0618L62.7018 17.31ZM94.8744 7.506C97.0278 7.506 98.7631 8.20267 100.08 9.596C101.398 10.9893 102.056 12.864 102.056 15.22V27H97.9524V15.486C97.9524 14.194 97.6231 13.1807 96.9644 12.446C96.3058 11.7113 95.4064 11.344 94.2664 11.344C92.9744 11.344 91.9611 11.7747 91.2264 12.636C90.4918 13.472 90.1244 14.7133 90.1244 16.36V27H86.0204V15.486C86.0204 14.1687 85.7038 13.1553 85.0704 12.446C84.4624 11.7113 83.5884 11.344 82.4484 11.344C81.1818 11.344 80.1558 11.7747 79.3704 12.636C78.6104 13.4973 78.2304 14.7387 78.2304 16.36V27H74.1264V8H78.2304V10.28C79.4464 8.43067 81.2578 7.506 83.6644 7.506C86.0964 7.506 87.8951 8.50667 89.0604 10.508C90.3018 8.50667 92.2398 7.506 94.8744 7.506ZM124.803 19.248H109.679C109.983 20.6667 110.667 21.7687 111.731 22.554C112.82 23.3393 114.163 23.732 115.759 23.732C117.912 23.732 119.546 22.9467 120.661 21.376L124.043 23.352C122.193 26.1133 119.419 27.494 115.721 27.494C112.655 27.494 110.16 26.5567 108.235 24.682C106.335 22.782 105.385 20.388 105.385 17.5C105.385 14.688 106.322 12.3193 108.197 10.394C110.046 8.46867 112.453 7.506 115.417 7.506C118.178 7.506 120.458 8.48133 122.257 10.432C124.055 12.3827 124.955 14.7513 124.955 17.538C124.955 18.0447 124.904 18.6147 124.803 19.248ZM109.641 15.904H120.813C120.534 14.4093 119.901 13.2567 118.913 12.446C117.95 11.6353 116.772 11.23 115.379 11.23C113.859 11.23 112.592 11.648 111.579 12.484C110.565 13.32 109.919 14.46 109.641 15.904ZM138.56 7.506C140.764 7.506 142.525 8.21533 143.842 9.634C145.185 11.0273 145.856 12.9273 145.856 15.334V27H141.752V15.752C141.752 14.3333 141.372 13.244 140.612 12.484C139.852 11.724 138.813 11.344 137.496 11.344C136.001 11.344 134.823 11.8127 133.962 12.75C133.101 13.662 132.67 15.0173 132.67 16.816V27H128.566V8H132.67V10.432C133.937 8.48133 135.9 7.506 138.56 7.506Z" fill="#059784"/>
<path d="M154.911 15.638V22.82H166.691V27H150.541V0.399998H166.501V4.58H154.911V11.496H165.551V15.638H154.911ZM180.305 17.272L187.411 27H182.661L177.949 20.502L173.199 27H168.411L175.555 17.234L168.791 8H173.541L177.911 14.004L182.281 8H187.069L180.305 17.272ZM200.921 7.506C203.505 7.506 205.735 8.48133 207.609 10.432C209.459 12.3573 210.383 14.7133 210.383 17.5C210.383 20.312 209.459 22.6807 207.609 24.606C205.76 26.5313 203.531 27.494 200.921 27.494C198.059 27.494 195.842 26.43 194.271 24.302V34.6H190.167V8H194.271V10.736C195.817 8.58267 198.033 7.506 200.921 7.506ZM195.981 21.87C197.121 23.01 198.553 23.58 200.275 23.58C201.998 23.58 203.429 23.01 204.569 21.87C205.709 20.7047 206.279 19.248 206.279 17.5C206.279 15.752 205.709 14.308 204.569 13.168C203.429 12.0027 201.998 11.42 200.275 11.42C198.553 11.42 197.121 12.0027 195.981 13.168C194.841 14.308 194.271 15.752 194.271 17.5C194.271 19.2227 194.841 20.6793 195.981 21.87ZM230.177 24.606C228.252 26.5313 225.883 27.494 223.071 27.494C220.259 27.494 217.89 26.5313 215.965 24.606C214.014 22.6553 213.039 20.2867 213.039 17.5C213.039 14.7133 214.014 12.3447 215.965 10.394C217.89 8.46867 220.259 7.506 223.071 7.506C225.883 7.506 228.252 8.46867 230.177 10.394C232.128 12.3447 233.103 14.7133 233.103 17.5C233.103 20.2867 232.128 22.6553 230.177 24.606ZM217.143 17.5C217.143 19.2227 217.713 20.654 218.853 21.794C219.993 22.934 221.399 23.504 223.071 23.504C224.743 23.504 226.149 22.934 227.289 21.794C228.429 20.654 228.999 19.2227 228.999 17.5C228.999 15.7773 228.429 14.346 227.289 13.206C226.149 12.066 224.743 11.496 223.071 11.496C221.399 11.496 219.993 12.066 218.853 13.206C217.713 14.346 217.143 15.7773 217.143 17.5Z" fill="#BC213A"/>
</svg>
