<svg width="12" height="12" viewBox="0 0 12 12" fill="none" xmlns="http://www.w3.org/2000/svg">
<path d="M10.4333 11.25L6.75833 7.575C6.46667 7.80833 6.13125 7.99305 5.75208 8.12917C5.37292 8.26528 4.96944 8.33333 4.54167 8.33333C3.48194 8.33333 2.58517 7.96622 1.85133 7.232C1.1175 6.49778 0.750389 5.601 0.75 4.54167C0.75 3.48194 1.11711 2.58517 1.85133 1.85133C2.58556 1.1175 3.48233 0.750389 4.54167 0.75C5.60139 0.75 6.49836 1.11711 7.23258 1.85133C7.96681 2.58556 8.33372 3.48233 8.33333 4.54167C8.33333 4.96944 8.26528 5.37292 8.12917 5.75208C7.99305 6.13125 7.80833 6.46667 7.575 6.75833L11.25 10.4333L10.4333 11.25ZM4.54167 7.16667C5.27083 7.16667 5.89072 6.91156 6.40133 6.40133C6.91194 5.89111 7.16706 5.27122 7.16667 4.54167C7.16667 3.8125 6.91156 3.19281 6.40133 2.68258C5.89111 2.17236 5.27122 1.91706 4.54167 1.91667C3.8125 1.91667 3.19281 2.17197 2.68258 2.68258C2.17236 3.19319 1.91706 3.81289 1.91667 4.54167C1.91667 5.27083 2.17197 5.89072 2.68258 6.40133C3.19319 6.91194 3.81289 7.16706 4.54167 7.16667Z" fill="#F2F9FF"/>
</svg>
