<svg width="22" height="18" viewBox="0 0 22 18" fill="none" xmlns="http://www.w3.org/2000/svg">
<path d="M6 14C5.45 14 4.97933 13.8043 4.588 13.413C4.19667 13.0217 4.00067 12.5507 4 12V2C4 1.45 4.196 0.979333 4.588 0.588C4.98 0.196667 5.45067 0.000666667 6 0H20C20.55 0 21.021 0.196 21.413 0.588C21.805 0.98 22.0007 1.45067 22 2V12C22 12.55 21.8043 13.021 21.413 13.413C21.0217 13.805 20.5507 14.0007 20 14H6ZM13 9.3L6 4.425V12H20V4.425L13 9.3ZM13 6.85L20 2H6L13 6.85ZM2 18C1.45 18 0.979333 17.8043 0.588 17.413C0.196667 17.0217 0.000666667 16.5507 0 16V3.5H2V16H18.5V18H2Z" fill="#F2F9FF"/>
</svg>
