<svg width="32" height="32" viewBox="0 0 32 32" fill="none" xmlns="http://www.w3.org/2000/svg">
<path d="M15.9997 12L10.6663 17.3333L21.333 17.3333L15.9997 12ZM15.9997 2.66665C17.8441 2.66665 19.5774 3.01687 21.1997 3.71731C22.8219 4.41776 24.233 5.36753 25.433 6.56665C26.633 7.76665 27.5828 9.17776 28.2823 10.8C28.9819 12.4222 29.3321 14.1555 29.333 16C29.333 17.8444 28.9828 19.5778 28.2823 21.2C27.5819 22.8222 26.6321 24.2333 25.433 25.4333C24.233 26.6333 22.8219 27.5831 21.1997 28.2826C19.5775 28.9822 17.8441 29.3324 15.9997 29.3333C14.1552 29.3333 12.4219 28.9831 10.7997 28.2826C9.17745 27.5822 7.76634 26.6324 6.56634 25.4333C5.36634 24.2333 4.41612 22.8222 3.71567 21.2C3.01523 19.5778 2.66545 17.8444 2.66634 16C2.66634 14.1555 3.01656 12.4222 3.71701 10.8C4.41745 9.17776 5.36723 7.76665 6.56634 6.56665C7.76634 5.36665 9.17745 4.41643 10.7997 3.71598C12.4219 3.01554 14.1552 2.66576 15.9997 2.66665ZM15.9997 5.33331C13.0219 5.33331 10.4997 6.36665 8.43301 8.43332C6.36634 10.5 5.33301 13.0222 5.33301 16C5.33301 18.9778 6.36634 21.5 8.43301 23.5666C10.4997 25.6333 13.0219 26.6666 15.9997 26.6666C18.9775 26.6666 21.4997 25.6333 23.5663 23.5666C25.633 21.5 26.6663 18.9778 26.6663 16C26.6663 13.0222 25.633 10.5 23.5663 8.43331C21.4997 6.36665 18.9775 5.33331 15.9997 5.33331Z" fill="#059784"/>
</svg>
