<svg width="70" height="79" viewBox="0 0 70 79" fill="none" xmlns="http://www.w3.org/2000/svg">
<path fill-rule="evenodd" clip-rule="evenodd" d="M29.5991 33.5839L30.6243 33.1002C31.1451 32.8557 31.7756 33.0731 32.0223 33.5948L52.8989 77.0304C53.1456 77.5466 52.9263 78.1716 52.4 78.4161L51.3748 78.8998C50.854 79.1443 50.2235 78.9269 49.9768 78.4052L29.1002 34.9696C28.8535 34.4534 29.0783 33.8284 29.5991 33.5839Z" fill="#BB9B72"/>
<path fill-rule="evenodd" clip-rule="evenodd" d="M20 69L34.8424 34L52 35.3307L44.4146 54.7493L20 69Z" fill="#EE5417"/>
<path fill-rule="evenodd" clip-rule="evenodd" d="M0 20L35 34.2651L33.7775 51L14.3667 43.7263L0 20Z" fill="#61378A"/>
<path fill-rule="evenodd" clip-rule="evenodd" d="M33.7558 51L14 43.6111L35 34L33.7558 51Z" fill="#783DA5"/>
<path fill-rule="evenodd" clip-rule="evenodd" d="M51 0L36.155 35L19 33.6693L26.5811 14.2507L51 0Z" fill="#8BB23F"/>
<path fill-rule="evenodd" clip-rule="evenodd" d="M19 33.6533L26.5127 14L36 35L19 33.6533Z" fill="#8FC43E"/>
<path fill-rule="evenodd" clip-rule="evenodd" d="M70 49L35 34.7403L36.2225 18L55.6333 25.2791L70 49Z" fill="#EBBF08"/>
<path fill-rule="evenodd" clip-rule="evenodd" d="M36.2442 18L56 25.392L35 35L36.2442 18Z" fill="#F4CC14"/>
<path fill-rule="evenodd" clip-rule="evenodd" d="M52 35.3467L44.4843 55L35 34L52 35.3467Z" fill="#F27216"/>
<path fill-rule="evenodd" clip-rule="evenodd" d="M34.1979 31.2516C35.9907 30.5334 38.0302 31.4051 38.7484 33.1979C39.4666 34.9907 38.5949 37.0302 36.8021 37.7484C35.0093 38.4666 32.9698 37.5949 32.2516 35.8021C31.5334 34.0093 32.4051 31.9698 34.1979 31.2516Z" fill="#FEFEFE"/>
</svg>
    